<?xml version="1.0" encoding="utf-8"?>
<!--Svg Vector Icons : http://www.onlinewebfonts.com/icon-->
<!DOCTYPE svg PUBLIC "-//W3C//DTD SVG 1.1//EN" "http://www.w3.org/Graphics/SVG/1.1/DTD/svg11.dtd">
<svg version="1.1" xmlns="http://www.w3.org/2000/svg" height="64" width="64" xmlns:xlink="http://www.w3.org/1999/xlink" x="0px" y="0px" viewBox="0 0 1000 1000" enable-background="new 0 0 1000 1000" xml:space="preserve">
    <metadata>
        Svg Vector Icons : http://www.onlinewebfonts.com/icon
    </metadata>
    <g>
        <path d="M556.3,579.8H449.4v213.6h-107v-534h213.9c105.6,0,157,73.3,157,160.1c0,86.8-40.5,160.1-146.2,160.1h-10.8V579.8z M500,10.7c-270.6,0-490,219-490,489.3c0,270.2,219.4,489.3,490,489.3c270.7,0,490-219.1,490-489.3C990,229.7,770.7,10.7,500,10.7L500,10.7z M556.3,366.1H449.4V473h106.9c45.2,0,53.4-11.8,53.4-53.4c0-41.6,2.6-53.4-42.7-53.4H556.3L556.3,366.1z"/>
    </g>
</svg>
